<svg width="1600" height="520" viewBox="0 0 1600 520" fill="none">
  <title>Local Agentic RAG banner</title>
  <desc>Secure local retrieval and agentic AI engineering architecture banner.</desc>

  <defs>
    <linearGradient id="bg" x1="0" y1="0" x2="1600" y2="520" gradientUnits="userSpaceOnUse">
      <stop offset="0" stop-color="#080b12"/>
      <stop offset="0.55" stop-color="#101623"/>
      <stop offset="1" stop-color="#07090f"/>
    </linearGradient>
    <linearGradient id="panel" x1="0" y1="0" x2="1" y2="1">
      <stop offset="0" stop-color="#172033"/>
      <stop offset="1" stop-color="#0c111c"/>
    </linearGradient>
    <linearGradient id="accent" x1="0" y1="0" x2="1" y2="0">
      <stop offset="0" stop-color="#34d399"/>
      <stop offset="0.45" stop-color="#22d3ee"/>
      <stop offset="1" stop-color="#8b5cf6"/>
    </linearGradient>
    <style>
      .title { font: 800 78px Arial, Helvetica, sans-serif; letter-spacing: 8px; fill: #f8fafc; }
      .subtitle { font: 500 28px Arial, Helvetica, sans-serif; fill: #cbd5e1; }
      .tech { font: 500 20px Arial, Helvetica, sans-serif; fill: #94a3b8; }
      .label { font: 700 18px Arial, Helvetica, sans-serif; letter-spacing: 2px; fill: #dbeafe; }
      .small { font: 600 15px Arial, Helvetica, sans-serif; fill: #a7f3d0; }
      .mono { font: 500 20px Consolas, Monaco, monospace; fill: #d1fae5; }
      .mono-dim { font: 500 17px Consolas, Monaco, monospace; fill: #7dd3fc; }
      .node-text { font: 700 16px Arial, Helvetica, sans-serif; fill: #e2e8f0; }
      .muted { fill: #64748b; }
    </style>
  </defs>

  <rect width="1600" height="520" fill="url(#bg)"/>

  <g opacity="0.22">
    <path d="M0 88H1600M0 176H1600M0 264H1600M0 352H1600M0 440H1600" stroke="#334155" stroke-width="1"/>
    <path d="M120 0V520M240 0V520M360 0V520M480 0V520M600 0V520M720 0V520M840 0V520M960 0V520M1080 0V520M1200 0V520M1320 0V520M1440 0V520" stroke="#1e293b" stroke-width="1"/>
  </g>

  <rect x="26" y="24" width="1548" height="472" rx="28" stroke="#1f2937" stroke-width="2"/>
  <rect x="42" y="40" width="1516" height="440" rx="22" stroke="#0f766e" stroke-width="1" opacity="0.45"/>

  <g>
    <rect x="76" y="78" width="380" height="276" rx="18" fill="url(#panel)" stroke="#22d3ee" stroke-width="2"/>
    <rect x="76" y="78" width="380" height="46" rx="18" fill="#0f172a"/>
    <circle cx="106" cy="101" r="6" fill="#ef4444"/>
    <circle cx="128" cy="101" r="6" fill="#f59e0b"/>
    <circle cx="150" cy="101" r="6" fill="#22c55e"/>
    <text x="176" y="108" class="label">JSON CONTRACT</text>

    <text x="104" y="164" class="mono">{</text>
    <text x="130" y="196" class="mono-dim">"tool"</text>
    <text x="210" y="196" class="mono">: "search_code",</text>
    <text x="130" y="230" class="mono-dim">"arguments"</text>
    <text x="258" y="230" class="mono">: {</text>
    <text x="160" y="264" class="mono-dim">"query"</text>
    <text x="244" y="264" class="mono">: "agentic"</text>
    <text x="130" y="298" class="mono">}</text>
    <text x="104" y="330" class="mono">}</text>
  </g>

  <g>
    <text x="512" y="136" class="title">LOCAL AGENTIC RAG</text>
    <text x="518" y="188" class="subtitle">Secure local retrieval and agentic AI engineering</text>
    <text x="520" y="228" class="tech">JSON Contracts · Linux Runtime · Qwen · Ollama · EmbeddingGemma · ChromaDB</text>
  </g>

  <g>
    <rect x="92" y="380" width="342" height="76" rx="14" fill="#020617" stroke="#334155" stroke-width="1.5"/>
    <text x="116" y="412" class="mono-dim">$ ollama serve</text>
    <text x="116" y="438" class="mono-dim">$ uv run pytest</text>
  </g>

  <g transform="translate(520 286)">
    <rect x="0" y="0" width="172" height="72" rx="14" fill="#111827" stroke="#475569"/>
    <text x="26" y="42" class="node-text">Technical Corpus</text>

    <path d="M188 36H258" stroke="#22d3ee" stroke-width="3"/>
    <path d="M248 25L262 36L248 47" stroke="#22d3ee" stroke-width="3"/>

    <rect x="278" y="0" width="150" height="72" rx="14" fill="#111827" stroke="#475569"/>
    <circle cx="312" cy="36" r="7" fill="#22d3ee"/>
    <circle cx="340" cy="20" r="5" fill="#34d399"/>
    <circle cx="364" cy="50" r="5" fill="#8b5cf6"/>
    <path d="M312 36L340 20L364 50" stroke="#64748b"/>
    <text x="306" y="92" class="small">Embeddings</text>

    <path d="M444 36H514" stroke="#22d3ee" stroke-width="3"/>
    <path d="M504 25L518 36L504 47" stroke="#22d3ee" stroke-width="3"/>

    <rect x="534" y="0" width="132" height="72" rx="14" fill="#111827" stroke="#475569"/>
    <ellipse cx="600" cy="22" rx="42" ry="10" stroke="#a7f3d0"/>
    <path d="M558 22V48C558 54 577 60 600 60C623 60 642 54 642 48V22" stroke="#a7f3d0"/>
    <text x="566" y="92" class="small">ChromaDB</text>

    <path d="M682 36H752" stroke="#22d3ee" stroke-width="3"/>
    <path d="M742 25L756 36L742 47" stroke="#22d3ee" stroke-width="3"/>

    <rect x="772" y="0" width="130" height="72" rx="14" fill="#111827" stroke="#475569"/>
    <path d="M806 48L826 22L846 48L866 22" stroke="#c084fc" stroke-width="4" stroke-linecap="round"/>
    <text x="804" y="92" class="small">Retrieval</text>

    <path d="M918 36H988" stroke="#22d3ee" stroke-width="3"/>
    <path d="M978 25L992 36L978 47" stroke="#22d3ee" stroke-width="3"/>

    <rect x="1008" y="0" width="126" height="72" rx="14" fill="#111827" stroke="#475569"/>
    <circle cx="1071" cy="36" r="24" fill="#0f172a" stroke="#8b5cf6" stroke-width="2"/>
    <path d="M1058 36H1084M1071 23V49" stroke="#8b5cf6" stroke-width="2"/>
    <text x="1050" y="92" class="small">Qwen</text>
  </g>

  <g>
    <rect x="1020" y="78" width="236" height="62" rx="31" fill="#052e2b" stroke="#34d399" stroke-width="1.5"/>
    <text x="1058" y="116" class="label">LOCAL-FIRST</text>

    <rect x="1280" y="78" width="236" height="62" rx="31" fill="#111827" stroke="#60a5fa" stroke-width="1.5"/>
    <text x="1310" y="116" class="label">READ-ONLY TOOLS</text>

    <rect x="1020" y="162" width="236" height="62" rx="31" fill="#1e1b4b" stroke="#a78bfa" stroke-width="1.5"/>
    <text x="1042" y="200" class="label">SECURITY BOUNDARIES</text>

    <rect x="1280" y="162" width="236" height="62" rx="31" fill="#172554" stroke="#22d3ee" stroke-width="1.5"/>
    <text x="1300" y="200" class="label">DOMAIN-AWARE RETRIEVAL</text>
  </g>

  <g opacity="0.92">
    <rect x="1170" y="330" width="270" height="96" rx="18" fill="#020617" stroke="#22d3ee" stroke-width="2"/>
    <text x="1202" y="366" class="label">SECURITY BOUNDARY</text>
    <path d="M1212 388H1398" stroke="#334155" stroke-width="2"/>
    <text x="1222" y="414" class="small">sandbox · read-only · validated paths</text>
  </g>

  <path d="M62 468H1538" stroke="url(#accent)" stroke-width="3" stroke-linecap="round"/>
</svg>
